<?xml version="1.0" encoding="UTF-8" standalone="no"?>
<svg
   xmlns:dc="http://purl.org/dc/elements/1.1/"
   xmlns:cc="http://creativecommons.org/ns#"
   xmlns:rdf="http://www.w3.org/1999/02/22-rdf-syntax-ns#"
   xmlns:svg="http://www.w3.org/2000/svg"
   xmlns="http://www.w3.org/2000/svg"
   viewBox="0 0 28.266666 28.266666"
   height="28.266666"
   width="28.266666"
   xml:space="preserve"
   id="svg2"
   version="1.1"><metadata
     id="metadata8"><rdf:RDF><cc:Work
         rdf:about=""><dc:format>image/svg+xml</dc:format><dc:type
           rdf:resource="http://purl.org/dc/dcmitype/StillImage" /></cc:Work></rdf:RDF></metadata><defs
     id="defs6" /><g
     transform="matrix(1.3333333,0,0,-1.3333333,0,28.266667)"
     id="g10"><g
       transform="scale(0.1)"
       id="g12"><path
         id="path14"
         style="fill:#436fbf;fill-opacity:1;fill-rule:nonzero;stroke:none"
         d="m 117.121,149.602 c -2.812,-2.891 -6.887,-4.493 -11.457,-4.493 -8.3593,0 -14.6484,6.399 -14.6484,14.883 0,8.625 6.5039,15.129 15.1174,15.129 8.625,0 14.875,-6.348 14.894,-15.098 0.118,-3.996 -1.269,-7.687 -3.906,-10.421 z m 2.5,-109.7153 c 0,-3.3984 -2.922,-6.1523 -6.516,-6.1523 H 99.1719 c -3.5938,0 -6.5156,2.7539 -6.5156,6.1523 v 86.3753 c 0,3.39 2.9218,6.152 6.5156,6.152 h 13.9331 c 3.594,0 6.516,-2.762 6.516,-6.152 z M 106.016,212.043 C 47.4219,212.043 0,164.621 0,106.02 0,47.4258 47.4219,0.00390625 106.016,0.00390625 c 58.605,0 106.027,47.41019375 106.027,106.01609375 0,58.593 -47.414,106.023 -106.027,106.023" /></g></g></svg>